HIERARCHY
ROOT joint_Root
{
	OFFSET 0.0 0.0 0.0
	CHANNELS 6 Xposition Yposition Zposition Zrotation Xrotation Yrotation 
	JOINT Hips
	{
		OFFSET -17.1583 93.1646 452.98
		CHANNELS 6 Xposition Yposition Zposition Zrotation Xrotation Yrotation 
		JOINT Spine
		{
			OFFSET 15.7357 0.0 0.0
			CHANNELS 6 Xposition Yposition Zposition Zrotation Xrotation Yrotation 
			JOINT Chest
			{
				OFFSET 8.98455 -0.406207 0.0
				CHANNELS 6 Xposition Yposition Zposition Zrotation Xrotation Yrotation 
				JOINT Neck
				{
					OFFSET 16.3773 0.0 0.0
					CHANNELS 6 Xposition Yposition Zposition Zrotation Xrotation Yrotation 
					JOINT Head
					{
						OFFSET 6.45672 0.0 0.0
						CHANNELS 6 Xposition Yposition Zposition Zrotation Xrotation Yrotation 
						End Site
						{
							OFFSET 0.0 0.0 0.0
						}
					}
				}
				JOINT Shoulder_L
				{
					OFFSET 12.9942 -0.242716 4.98039
					CHANNELS 6 Xposition Yposition Zposition Zrotation Xrotation Yrotation 
					JOINT UpperArm_L
					{
						OFFSET 5.34809 0.0 0.0
						CHANNELS 6 Xposition Yposition Zposition Zrotation Xrotation Yrotation 
						JOINT LowerArm_L
						{
							OFFSET 24.3286 1.87007e-05 0.0
							CHANNELS 6 Xposition Yposition Zposition Zrotation Xrotation Yrotation 
							JOINT Hand_L
							{
								OFFSET 22.2916 0.0 0.0
								CHANNELS 6 Xposition Yposition Zposition Zrotation Xrotation Yrotation 
								End Site
								{
									OFFSET 0.0 0.0 0.0
								}
							}
						}
					}
				}
				JOINT Shoulder_R
				{
					OFFSET 12.9945 -0.242716 -4.98039
					CHANNELS 6 Xposition Yposition Zposition Zrotation Xrotation Yrotation 
					JOINT UpperArm_R
					{
						OFFSET -5.34813 0.0 0.0
						CHANNELS 6 Xposition Yposition Zposition Zrotation Xrotation Yrotation 
						JOINT LowerArm_R
						{
							OFFSET -24.3289 0.000322201 0.0
							CHANNELS 6 Xposition Yposition Zposition Zrotation Xrotation Yrotation 
							JOINT Hand_R
							{
								OFFSET -22.2915 -0.000108084 0.0
								CHANNELS 6 Xposition Yposition Zposition Zrotation Xrotation Yrotation 
								End Site
								{
									OFFSET 0.0 0.0 0.0
								}
							}
						}
					}
				}
			}
		}
		JOINT UpperLeg_L
		{
			OFFSET -2.19248 -6.46944 0.0
			CHANNELS 6 Xposition Yposition Zposition Zrotation Xrotation Yrotation 
			JOINT LowerLeg_L
			{
				OFFSET 39.0811 0.0 -1.23785e-05
				CHANNELS 6 Xposition Yposition Zposition Zrotation Xrotation Yrotation 
				JOINT Foot_L
				{
					OFFSET 40.9854 0.0 -1.26872e-05
					CHANNELS 6 Xposition Yposition Zposition Zrotation Xrotation Yrotation 
					JOINT Toes_L
					{
						OFFSET 11.7543 0.0 0.0
						CHANNELS 6 Xposition Yposition Zposition Zrotation Xrotation Yrotation 
						End Site
						{
							OFFSET 0.0 0.0 0.0
						}
					}
				}
			}
		}
		JOINT UpperLeg_R
		{
			OFFSET -2.19251 6.46944 0.0
			CHANNELS 6 Xposition Yposition Zposition Zrotation Xrotation Yrotation 
			JOINT LowerLeg_R
			{
				OFFSET -39.0811 -0.00228153 -0.0401928
				CHANNELS 6 Xposition Yposition Zposition Zrotation Xrotation Yrotation 
				JOINT Foot_R
				{
					OFFSET -40.9854 0.0 0.0
					CHANNELS 6 Xposition Yposition Zposition Zrotation Xrotation Yrotation 
					JOINT Toes_R
					{
						OFFSET -11.7543 0.0 0.0
						CHANNELS 6 Xposition Yposition Zposition Zrotation Xrotation Yrotation 
						End Site
						{
							OFFSET 0.0 0.0 0.0
						}
					}
				}
			}
		}
	}
}
MOTION
Frames:	6
Frame Time:	0.0333333
0.000000 0.000000 0.000000 0.000000 0.000000 -0.000000 -3.593190 92.620900 2.591290 87.478700 -0.079691 3.887540 15.735700 0.000005 -0.000001 84.420500 86.449700 -83.032500 8.984550 -0.406207 -0.000000 -0.687994 -0.792582 2.769950 16.377300 -0.000001 -0.000001 2.993940 2.491430 -2.655420 6.456720 -0.000001 -0.000000 6.657690 3.616670 -0.141604 12.994200 -0.242716 4.980390 -92.736000 8.405390 -71.896300 5.348090 -0.000007 -0.000001 -73.940200 22.721900 2.145460 24.328600 0.000019 0.000005 11.569000 25.943400 -25.075700 22.291600 -0.000001 0.000005 -2.171520 4.986690 7.601200 12.994500 -0.242716 -4.980390 88.746100 4.290440 -73.691700 -5.348130 -0.000001 -0.000004 -71.033600 29.254700 -5.777410 -24.328900 0.000322 -0.000009 1.189810 4.942720 -13.565600 -22.291500 -0.000108 -0.000004 -12.564000 5.049470 6.248080 -2.192480 -6.469440 -0.000000 -170.642000 -6.456770 3.302000 39.081100 -0.000007 -0.000012 0.011790 -0.040303 16.306100 40.985400 -0.000006 -0.000013 -2.104460 13.660000 -69.958400 11.754300 -0.000000 0.000003 -0.001494 0.189815 -8.876390 -2.192510 6.469440 -0.000001 -179.949000 5.731510 -175.392000 -39.081100 -0.002282 -0.040193 0.050402 -0.181856 14.511800 -40.985400 0.000008 0.000006 -2.222770 4.477200 -70.854900 -11.754300 -0.000006 -0.000006 -0.010795 0.277154 -5.311680
0.000000 0.000000 0.000000 0.000000 0.000000 -0.000000 -3.406430 92.631400 2.613010 87.504500 -0.131051 3.840430 15.735700 0.000005 -0.000001 83.016800 86.432200 -81.737100 8.984550 -0.406207 -0.000000 -0.671263 -0.961556 2.552530 16.377300 -0.000001 -0.000001 2.867800 2.532710 -2.891010 6.456720 -0.000001 -0.000000 6.434690 3.695310 -1.012780 12.994200 -0.242716 4.980390 -92.742300 8.447750 -71.941800 5.348090 -0.000007 -0.000001 -73.833700 21.350500 2.354550 24.328600 0.000019 0.000005 11.518900 25.689000 -25.179600 22.291600 -0.000001 0.000005 -2.026040 4.983780 7.662410 12.994500 -0.242716 -4.980390 88.673100 4.472960 -73.458300 -5.348130 -0.000001 -0.000004 -69.286200 27.743200 -7.187160 -24.328900 0.000322 -0.000009 1.497840 6.510410 -12.995500 -22.291500 -0.000108 -0.000004 -12.921200 5.063740 5.932690 -2.192480 -6.469440 -0.000000 -170.797000 -6.560040 3.268570 39.081100 -0.000007 -0.000012 0.013433 -0.045853 16.328900 40.985400 -0.000006 -0.000013 -1.955950 13.678300 -70.012000 11.754300 -0.000000 0.000003 -0.001601 0.191240 -8.818470 -2.192510 6.469440 -0.000001 179.867000 5.676790 -175.378000 -39.081100 -0.002282 -0.040193 0.046118 -0.166569 14.406200 -40.985400 0.000008 0.000006 -2.528850 4.589610 -70.755100 -11.754300 -0.000006 -0.000006 -0.010965 0.278379 -5.261570
0.000000 0.000000 0.000000 0.000000 0.000000 -0.000000 -3.204040 92.632300 2.644220 87.489900 -0.220018 3.809410 15.735700 0.000005 -0.000001 82.513700 86.432500 -81.411100 8.984550 -0.406207 -0.000000 -0.681218 -1.010660 2.198230 16.377300 -0.000001 -0.000001 2.704100 2.516180 -3.167210 6.456720 -0.000001 -0.000000 6.190550 3.581750 -1.752400 12.994200 -0.242716 4.980390 -92.767300 8.529420 -71.949800 5.348090 -0.000007 -0.000001 -73.401500 20.411200 2.465580 24.328600 0.000019 0.000005 11.640600 25.641900 -25.456600 22.291600 -0.000001 0.000005 -1.869680 4.982400 7.691340 12.994500 -0.242716 -4.980390 88.617200 4.589530 -73.212800 -5.348130 -0.000001 -0.000004 -67.013100 25.702200 -8.425820 -24.328900 0.000322 -0.000009 1.651760 7.246550 -12.885000 -22.291500 -0.000108 -0.000004 -13.325000 5.088750 5.369800 -2.192480 -6.469440 -0.000000 -170.924000 -6.696510 3.198640 39.081100 -0.000007 -0.000012 0.015318 -0.051757 16.487300 40.985400 -0.000006 -0.000013 -1.786740 13.645600 -70.136900 11.754300 -0.000000 0.000003 -0.001842 0.194353 -8.691920 -2.192510 6.469440 -0.000001 179.702000 5.678570 -175.361000 -39.081100 -0.002282 -0.040193 0.042205 -0.152242 14.324100 -40.985400 0.000008 0.000006 -2.810090 4.741810 -70.626100 -11.754300 -0.000006 -0.000006 -0.010682 0.276329 -5.345460
0.000000 0.000000 0.000000 0.000000 0.000000 -0.000000 -3.001180 92.630500 2.705370 87.465100 -0.180230 3.838590 15.735700 0.000005 -0.000001 82.398100 86.414100 -81.544300 8.984550 -0.406207 -0.000000 -0.649059 -1.011240 1.701130 16.377300 -0.000001 -0.000001 2.426430 2.397700 -3.447250 6.456720 -0.000001 -0.000000 5.997450 3.336780 -2.648970 12.994200 -0.242716 4.980390 -92.800900 8.667320 -72.013900 5.348090 -0.000007 -0.000001 -72.634300 19.958800 2.388190 24.328600 0.000019 0.000005 11.721600 25.569000 -25.675000 22.291600 -0.000001 0.000005 -1.892060 4.985180 7.633370 12.994500 -0.242716 -4.980390 88.611500 4.575520 -73.099100 -5.348130 -0.000001 -0.000004 -64.124700 23.033700 -9.449750 -24.328900 0.000322 -0.000009 1.734080 7.348540 -13.324600 -22.291500 -0.000108 -0.000004 -13.849500 5.113520 4.801110 -2.192480 -6.469440 -0.000000 -171.039000 -6.676150 3.196560 39.081100 -0.000007 -0.000012 0.016480 -0.055217 16.618000 40.985400 -0.000006 -0.000013 -1.623170 13.609200 -70.222000 11.754300 -0.000000 0.000003 -0.001789 0.193676 -8.719430 -2.192510 6.469440 -0.000001 179.510000 5.858320 -175.226000 -39.081100 -0.002282 -0.040193 0.036758 -0.132109 14.199000 -40.985400 0.000008 0.000006 -3.169630 4.978810 -70.491200 -11.754300 -0.000006 -0.000006 -0.010696 0.276434 -5.341150
0.000000 0.000000 0.000000 0.000000 0.000000 -0.000000 -2.774490 92.623400 2.784820 87.466100 -0.232899 3.845290 15.735700 0.000005 -0.000001 83.265900 86.438200 -82.742600 8.984550 -0.406207 -0.000000 -0.687389 -0.873740 1.040840 16.377300 -0.000001 -0.000001 2.191260 2.265650 -3.733900 6.456720 -0.000001 -0.000000 5.779000 2.998870 -3.738340 12.994200 -0.242716 4.980390 -92.839100 8.786510 -72.014000 5.348090 -0.000007 -0.000001 -71.653400 19.639000 2.254600 24.328600 0.000019 0.000005 11.886200 25.679500 -25.906700 22.291600 -0.000001 0.000005 -2.047910 4.992720 7.473860 12.994500 -0.242716 -4.980390 88.692200 4.291850 -73.035900 -5.348130 -0.000001 -0.000004 -60.619200 19.794200 -10.483200 -24.328900 0.000322 -0.000009 1.816860 7.456290 -13.743400 -22.291500 -0.000108 -0.000004 -14.399900 5.146350 4.029880 -2.192480 -6.469440 -0.000000 -171.208000 -6.650520 3.197580 39.081100 -0.000007 -0.000012 0.018152 -0.060274 16.760100 40.985400 -0.000006 -0.000013 -1.447530 13.500500 -70.362900 11.754300 -0.000000 0.000003 -0.001762 0.193326 -8.733680 -2.192510 6.469440 -0.000001 179.264000 6.055870 -175.110000 -39.081100 -0.002282 -0.040193 0.032949 -0.117918 14.099100 -40.985400 0.000008 0.000006 -3.437020 5.325810 -70.420700 -11.754300 -0.000006 -0.000006 -0.010716 0.276578 -5.335260
0.000000 0.000000 0.000000 0.000000 0.000000 -0.000000 -2.551080 92.608200 2.879010 87.445400 -0.347542 3.867740 15.735700 0.000005 -0.000001 84.759900 86.464000 -84.646400 8.984550 -0.406207 -0.000000 -0.723023 -0.654150 0.222936 16.377300 -0.000001 -0.000001 1.912650 2.174220 -4.123770 6.456720 -0.000001 -0.000000 5.561710 2.637520 -4.741320 12.994200 -0.242716 4.980390 -92.867200 8.825820 -71.922300 5.348090 -0.000007 -0.000001 -70.628500 18.560500 2.059010 24.328600 0.000019 0.000005 12.022400 25.764900 -26.101800 22.291600 -0.000001 0.000005 -2.111460 4.991730 7.494960 12.994500 -0.242716 -4.980390 88.818400 3.879740 -73.047300 -5.348130 -0.000001 -0.000004 -56.189900 16.442200 -11.791900 -24.328900 0.000322 -0.000009 2.051090 8.420590 -13.750100 -22.291500 -0.000108 -0.000004 -14.694900 5.173050 3.386890 -2.192480 -6.469440 -0.000000 -171.358000 -6.664430 3.208210 39.081100 -0.000007 -0.000012 0.021569 -0.070712 16.963100 40.985400 -0.000006 -0.000013 -1.266480 13.351800 -70.530200 11.754300 -0.000000 0.000003 -0.001668 0.192109 -8.783140 -2.192510 6.469440 -0.000001 179.053000 6.200330 -174.998000 -39.081100 -0.002282 -0.040193 0.029817 -0.105954 14.034500 -40.985400 0.000008 0.000006 -3.648900 5.635450 -70.351800 -11.754300 -0.000006 -0.000006 -0.010526 0.275194 -5.391900
